<mxfile host="65bd71144e">
    <diagram id="pmPXgPiDUu7bhI7f7qsN" name="第 1 页">
        <mxGraphModel dx="833" dy="562" grid="1" gridSize="10" guides="1" tooltips="1" connect="1" arrows="1" fold="1" page="1" pageScale="1" pageWidth="827" pageHeight="1169" math="0" shadow="0">
            <root>
                <mxCell id="0"/>
                <mxCell id="1" parent="0"/>
                <mxCell id="24" value="txid=12" style="text;html=1;strokeColor=none;fillColor=none;align=center;verticalAlign=middle;whiteSpace=wrap;rounded=0;" vertex="1" parent="1">
                    <mxGeometry x="40" y="50" width="40" height="20" as="geometry"/>
                </mxCell>
                <mxCell id="26" value="" style="endArrow=classic;html=1;" edge="1" parent="1">
                    <mxGeometry width="50" height="50" relative="1" as="geometry">
                        <mxPoint x="200" y="80" as="sourcePoint"/>
                        <mxPoint x="240" y="200" as="targetPoint"/>
                    </mxGeometry>
                </mxCell>
                <mxCell id="28" value="" style="endArrow=classic;html=1;" edge="1" parent="1">
                    <mxGeometry width="50" height="50" relative="1" as="geometry">
                        <mxPoint x="280" y="200" as="sourcePoint"/>
                        <mxPoint x="320" y="80" as="targetPoint"/>
                    </mxGeometry>
                </mxCell>
                <mxCell id="31" value="" style="endArrow=classic;html=1;" edge="1" parent="1">
                    <mxGeometry width="50" height="50" relative="1" as="geometry">
                        <mxPoint x="480" y="80" as="sourcePoint"/>
                        <mxPoint x="540" y="360" as="targetPoint"/>
                    </mxGeometry>
                </mxCell>
                <mxCell id="37" value="" style="group;container=1;" vertex="1" connectable="0" parent="1">
                    <mxGeometry x="41" y="280" width="599" height="300" as="geometry"/>
                </mxCell>
                <mxCell id="49" value="" style="group" vertex="1" connectable="0" parent="37">
                    <mxGeometry y="160" width="599" height="140" as="geometry"/>
                </mxCell>
                <mxCell id="10" value="Actor" style="shape=umlActor;verticalLabelPosition=bottom;verticalAlign=top;html=1;outlineConnect=0;" vertex="1" parent="49">
                    <mxGeometry x="40" width="39" height="40" as="geometry"/>
                </mxCell>
                <mxCell id="13" value="" style="endArrow=none;html=1;" edge="1" parent="49">
                    <mxGeometry width="50" height="50" relative="1" as="geometry">
                        <mxPoint x="79" y="40" as="sourcePoint"/>
                        <mxPoint x="599" y="40" as="targetPoint"/>
                    </mxGeometry>
                </mxCell>
                <mxCell id="25" value="txid=13" style="text;html=1;strokeColor=none;fillColor=none;align=center;verticalAlign=middle;whiteSpace=wrap;rounded=0;" vertex="1" parent="49">
                    <mxGeometry y="20" width="40" height="20" as="geometry"/>
                </mxCell>
                <mxCell id="68" value="&lt;span&gt;update balance set balance + 100 from Accounts where id = 1&lt;/span&gt;" style="rounded=0;whiteSpace=wrap;html=1;" vertex="1" parent="49">
                    <mxGeometry x="209" y="40" width="131" height="60" as="geometry"/>
                </mxCell>
                <mxCell id="69" value="&lt;span&gt;update balance set balance - 100 from Accounts where id = 2&lt;/span&gt;" style="rounded=0;whiteSpace=wrap;html=1;" vertex="1" parent="49">
                    <mxGeometry x="359" y="40" width="131" height="60" as="geometry"/>
                </mxCell>
                <mxCell id="42" value="" style="group;container=1;" vertex="1" connectable="0" parent="1">
                    <mxGeometry x="20" y="310" width="620" height="150" as="geometry"/>
                </mxCell>
                <mxCell id="59" value="" style="group" vertex="1" connectable="0" parent="42">
                    <mxGeometry x="20" width="610" height="130" as="geometry"/>
                </mxCell>
                <mxCell id="17" value="500" style="shape=cylinder3;whiteSpace=wrap;html=1;boundedLbl=1;backgroundOutline=1;size=15;" vertex="1" parent="59">
                    <mxGeometry x="50" width="40" height="60" as="geometry"/>
                </mxCell>
                <mxCell id="19" value="" style="endArrow=none;dashed=1;html=1;dashPattern=1 3;strokeWidth=2;startArrow=none;" edge="1" parent="59">
                    <mxGeometry width="50" height="50" relative="1" as="geometry">
                        <mxPoint x="92" y="51" as="sourcePoint"/>
                        <mxPoint x="610" y="51" as="targetPoint"/>
                    </mxGeometry>
                </mxCell>
                <mxCell id="23" value="Account=2" style="text;html=1;strokeColor=none;fillColor=none;align=center;verticalAlign=middle;whiteSpace=wrap;rounded=0;" vertex="1" parent="59">
                    <mxGeometry y="31" width="40" height="20" as="geometry"/>
                </mxCell>
                <mxCell id="71" value="" style="group" vertex="1" connectable="0" parent="59">
                    <mxGeometry x="490" y="50" width="111" height="120" as="geometry"/>
                </mxCell>
                <mxCell id="72" value="&lt;span&gt;create by 5&lt;/span&gt;&lt;br&gt;&lt;span&gt;delete by =13&amp;nbsp;&lt;/span&gt;&lt;br&gt;&lt;span&gt;id = 2&lt;br&gt;&lt;/span&gt;&lt;span&gt;balance = 500&lt;/span&gt;" style="rounded=0;whiteSpace=wrap;html=1;" vertex="1" parent="71">
                    <mxGeometry width="110" height="60" as="geometry"/>
                </mxCell>
                <mxCell id="73" value="create by 13&lt;br&gt;delete by = nil&lt;br&gt;id = 2&lt;br&gt;balance = 400" style="rounded=0;whiteSpace=wrap;html=1;" vertex="1" parent="71">
                    <mxGeometry y="60" width="111" height="60" as="geometry"/>
                </mxCell>
                <mxCell id="60" value="create by 5&lt;br&gt;delete by = nil&amp;nbsp;&lt;br&gt;id = 2&lt;br&gt;balance = 500" style="rounded=0;whiteSpace=wrap;html=1;" vertex="1" parent="42">
                    <mxGeometry x="100" y="50" width="110" height="60" as="geometry"/>
                </mxCell>
                <mxCell id="65" value="" style="endArrow=classic;html=1;" edge="1" parent="42">
                    <mxGeometry width="50" height="50" relative="1" as="geometry">
                        <mxPoint x="420" y="50" as="sourcePoint"/>
                        <mxPoint x="460" y="50" as="targetPoint"/>
                    </mxGeometry>
                </mxCell>
                <mxCell id="45" value="" style="group;container=1;" vertex="1" connectable="0" parent="1">
                    <mxGeometry x="30" y="150" width="610" height="170" as="geometry"/>
                </mxCell>
                <mxCell id="27" value="" style="endArrow=classic;html=1;" edge="1" parent="45">
                    <mxGeometry width="50" height="50" relative="1" as="geometry">
                        <mxPoint x="210" y="49" as="sourcePoint"/>
                        <mxPoint x="250" y="49" as="targetPoint"/>
                    </mxGeometry>
                </mxCell>
                <mxCell id="33" value="" style="endArrow=classic;html=1;" edge="1" parent="45">
                    <mxGeometry width="50" height="50" relative="1" as="geometry">
                        <mxPoint x="290" y="50" as="sourcePoint"/>
                        <mxPoint x="330" y="50" as="targetPoint"/>
                    </mxGeometry>
                </mxCell>
                <mxCell id="55" value="&lt;span&gt;create by 3&lt;/span&gt;&lt;br&gt;&lt;span&gt;delete by = nil&amp;nbsp;&lt;/span&gt;&lt;br&gt;&lt;span&gt;id = 1&lt;/span&gt;&lt;br&gt;&lt;span&gt;balance = 500&lt;/span&gt;" style="rounded=0;whiteSpace=wrap;html=1;" vertex="1" parent="45">
                    <mxGeometry x="90" y="50" width="110" height="60" as="geometry"/>
                </mxCell>
                <mxCell id="62" value="" style="group" vertex="1" connectable="0" parent="45">
                    <mxGeometry width="610" height="60" as="geometry"/>
                </mxCell>
                <mxCell id="16" value="500" style="shape=cylinder3;whiteSpace=wrap;html=1;boundedLbl=1;backgroundOutline=1;size=15;" vertex="1" parent="62">
                    <mxGeometry x="50" width="40" height="60" as="geometry"/>
                </mxCell>
                <mxCell id="18" value="" style="endArrow=none;dashed=1;html=1;dashPattern=1 3;strokeWidth=2;" edge="1" parent="62">
                    <mxGeometry width="50" height="50" relative="1" as="geometry">
                        <mxPoint x="90" y="50" as="sourcePoint"/>
                        <mxPoint x="610" y="50" as="targetPoint"/>
                    </mxGeometry>
                </mxCell>
                <mxCell id="20" value="Account=1" style="text;html=1;strokeColor=none;fillColor=none;align=center;verticalAlign=middle;whiteSpace=wrap;rounded=0;" vertex="1" parent="62">
                    <mxGeometry y="30" width="40" height="20" as="geometry"/>
                </mxCell>
                <mxCell id="61" value="" style="edgeStyle=none;html=1;" edge="1" parent="62" source="20" target="16">
                    <mxGeometry relative="1" as="geometry"/>
                </mxCell>
                <mxCell id="70" value="" style="group" vertex="1" connectable="0" parent="45">
                    <mxGeometry x="329" y="50" width="111" height="120" as="geometry"/>
                </mxCell>
                <mxCell id="52" value="&lt;span&gt;create by 3&lt;/span&gt;&lt;br&gt;&lt;span&gt;delete by =13&amp;nbsp;&lt;/span&gt;&lt;br&gt;&lt;span&gt;id = 1&lt;/span&gt;&lt;br&gt;&lt;span&gt;balance = 500&lt;/span&gt;" style="rounded=0;whiteSpace=wrap;html=1;" vertex="1" parent="70">
                    <mxGeometry width="110" height="60" as="geometry"/>
                </mxCell>
                <mxCell id="53" value="create by 13&lt;br&gt;delete by = nil&lt;br&gt;id = 1&lt;br&gt;balance = 600" style="rounded=0;whiteSpace=wrap;html=1;" vertex="1" parent="70">
                    <mxGeometry y="60" width="111" height="60" as="geometry"/>
                </mxCell>
                <mxCell id="74" value="" style="endArrow=classic;html=1;" edge="1" parent="45">
                    <mxGeometry width="50" height="50" relative="1" as="geometry">
                        <mxPoint x="510" y="210" as="sourcePoint"/>
                        <mxPoint x="570" y="210" as="targetPoint"/>
                    </mxGeometry>
                </mxCell>
                <mxCell id="48" value="" style="group" vertex="1" connectable="0" parent="1">
                    <mxGeometry x="81" y="40" width="559" height="40" as="geometry"/>
                </mxCell>
                <mxCell id="8" value="" style="endArrow=none;html=1;" edge="1" parent="48">
                    <mxGeometry width="50" height="50" relative="1" as="geometry">
                        <mxPoint x="39" y="40" as="sourcePoint"/>
                        <mxPoint x="559" y="40" as="targetPoint"/>
                    </mxGeometry>
                </mxCell>
                <mxCell id="9" value="Actor" style="shape=umlActor;verticalLabelPosition=bottom;verticalAlign=top;html=1;outlineConnect=0;" vertex="1" parent="48">
                    <mxGeometry width="39" height="40" as="geometry"/>
                </mxCell>
                <mxCell id="47" value="time" style="text;html=1;strokeColor=none;fillColor=none;align=center;verticalAlign=middle;whiteSpace=wrap;rounded=0;" vertex="1" parent="48">
                    <mxGeometry x="519" y="20" width="40" height="20" as="geometry"/>
                </mxCell>
                <mxCell id="78" value="Select balance from Accouns where id =1" style="rounded=0;whiteSpace=wrap;html=1;" vertex="1" parent="48">
                    <mxGeometry x="99" y="-20" width="140" height="60" as="geometry"/>
                </mxCell>
                <mxCell id="79" value="Select balance from Accouns where id =2" style="rounded=0;whiteSpace=wrap;html=1;" vertex="1" parent="48">
                    <mxGeometry x="379" y="-20" width="140" height="60" as="geometry"/>
                </mxCell>
                <mxCell id="32" value="" style="endArrow=classic;html=1;" edge="1" parent="1">
                    <mxGeometry width="50" height="50" relative="1" as="geometry">
                        <mxPoint x="280" y="480" as="sourcePoint"/>
                        <mxPoint x="320" y="200" as="targetPoint"/>
                    </mxGeometry>
                </mxCell>
                <mxCell id="34" value="" style="endArrow=classic;html=1;" edge="1" parent="1">
                    <mxGeometry width="50" height="50" relative="1" as="geometry">
                        <mxPoint x="360" y="200" as="sourcePoint"/>
                        <mxPoint x="400" y="480" as="targetPoint"/>
                    </mxGeometry>
                </mxCell>
                <mxCell id="63" value="500" style="text;html=1;strokeColor=none;fillColor=none;align=center;verticalAlign=middle;whiteSpace=wrap;rounded=0;" vertex="1" parent="1">
                    <mxGeometry x="300" y="130" width="40" height="20" as="geometry"/>
                </mxCell>
                <mxCell id="64" value="" style="endArrow=classic;html=1;" edge="1" parent="1">
                    <mxGeometry width="50" height="50" relative="1" as="geometry">
                        <mxPoint x="400" y="480" as="sourcePoint"/>
                        <mxPoint x="440" y="360" as="targetPoint"/>
                    </mxGeometry>
                </mxCell>
                <mxCell id="67" value="" style="endArrow=classic;html=1;" edge="1" parent="1">
                    <mxGeometry width="50" height="50" relative="1" as="geometry">
                        <mxPoint x="480" y="360" as="sourcePoint"/>
                        <mxPoint x="520" y="480" as="targetPoint"/>
                    </mxGeometry>
                </mxCell>
                <mxCell id="80" value="commit" style="edgeLabel;html=1;align=center;verticalAlign=middle;resizable=0;points=[];" vertex="1" connectable="0" parent="67">
                    <mxGeometry x="0.2896" relative="1" as="geometry">
                        <mxPoint as="offset"/>
                    </mxGeometry>
                </mxCell>
                <mxCell id="75" value="" style="endArrow=classic;html=1;entryX=1;entryY=1;entryDx=0;entryDy=0;" edge="1" parent="1" target="47">
                    <mxGeometry width="50" height="50" relative="1" as="geometry">
                        <mxPoint x="600" y="360" as="sourcePoint"/>
                        <mxPoint x="590" y="150" as="targetPoint"/>
                    </mxGeometry>
                </mxCell>
                <mxCell id="76" value="commit" style="edgeLabel;html=1;align=center;verticalAlign=middle;resizable=0;points=[];" vertex="1" connectable="0" parent="75">
                    <mxGeometry x="0.6285" y="-1" relative="1" as="geometry">
                        <mxPoint as="offset"/>
                    </mxGeometry>
                </mxCell>
                <mxCell id="77" value="500" style="text;html=1;align=center;verticalAlign=middle;resizable=0;points=[];autosize=1;strokeColor=none;" vertex="1" parent="1">
                    <mxGeometry x="610" y="220" width="40" height="20" as="geometry"/>
                </mxCell>
                <mxCell id="81" value="&lt;h1&gt;MVVC:&amp;nbsp;&amp;nbsp;&lt;/h1&gt;&lt;div&gt;多版本对象实现快照隔离&lt;/div&gt;&lt;div&gt;https://github.com/Vonng/ddia/blob/master/ch7.md&lt;br&gt;&lt;/div&gt;" style="text;html=1;strokeColor=none;fillColor=none;spacing=5;spacingTop=-20;whiteSpace=wrap;overflow=hidden;rounded=0;" vertex="1" parent="1">
                    <mxGeometry x="640" y="40" width="190" height="90" as="geometry"/>
                </mxCell>
            </root>
        </mxGraphModel>
    </diagram>
</mxfile>